<svg id="Layer_1" enable-background="new 0 0 512 512" height="512" viewBox="0 0 512 512" width="512" xmlns="http://www.w3.org/2000/svg"><g><g><g><g><g><g><g><g><g><circle cx="256" cy="256" fill="#00c8c8" r="256"/></g></g></g></g></g></g></g></g><path d="m512 256c0-25.72-3.793-50.554-10.85-73.974l-85.323-85.323-5.866 10.084-24.107-24.107-282.787 346.641 68.39 68.39c26.466 9.256 54.917 14.289 84.543 14.289 141.385 0 256-114.615 256-256z" fill="#13aaaa"/><g><path d="m217.745 464.195-29.321-11.077-28.018 11.077v-58.642h57.339z" fill="#fff"/></g><g><path d="m372.822 96.703h43.004v54.733h-43.004z" fill="#f24500"/></g><g><path d="m372.822 348.213h43.004v54.733h-43.004z" fill="#f24500"/></g><g><path d="m372.822 174.892h43.004v54.733h-43.004z" fill="#f24500"/></g><g><path d="m131.736 82.679h254.117v346.642h-254.117z" fill="#ffce00"/></g><g><path d="m256.12 82.679h129.733v346.642h-129.733z" fill="#fdba12"/></g><g><path d="m103.067 82.679h38.84v346.642h-38.84z" fill="#fe6a16"/></g><g><path d="m175.855 119.25h175.927v127.185h-175.927z" fill="#fff"/></g><g><path d="m256.12 119.25h95.662v127.185h-95.662z" fill="#e9edf5"/></g><g><path d="m277.365 142.884h51.149v30h-51.149z" fill="#bec3d2"/></g><g><path d="m207.32 192.176h121.194v30h-121.194z" fill="#dce1eb"/></g><g><path d="m256.12 192.176h72.394v30h-72.394z" fill="#bec3d2"/></g></g></svg>